<?xml version="1.0" encoding="utf-8"?>
<!-- Generator: Adobe Illustrator 21.1.0, SVG Export Plug-In . SVG Version: 6.00 Build 0)  -->
<svg version="1.1" id="Layer_1" xmlns="http://www.w3.org/2000/svg" xmlns:xlink="http://www.w3.org/1999/xlink" x="0px" y="0px"
	 viewBox="0 0 576 125.6" style="enable-background:new 0 0 576 125.6;" xml:space="preserve">
<style type="text/css">
	.st0{fill:#FFFFFF;}
	.st1{fill:#00438C;}
	.st2{fill:#DA1A32;}
</style>
<g>
	<g>
		<path class="st0" d="M41.8,0h-29C5.7,0,0,5.8,0,12.8V111c0,7.1,5.7,12.8,12.8,12.8h29c7.1,0,12.8-5.8,12.8-12.8V12.8
			C54.7,5.8,48.9,0,41.8,0"/>
		<path class="st1" d="M40.6,109.1c-1.6-1.4-0.5-2-0.6-2.6c-1-4.3-4.4-6.9-2.7-8.3c-0.4-1.4-1.3-3.2-1.3-3.2c-5.3-3-9.8-8-10.6-8.7
			c-0.9-1-2.5-2-2.8-2.9c-1.3-1.2-7.5-10.1-9-13.3l-2.5-0.4c-1.2-4.7-5-8.7-5.1-13.4c0-1.8,0.8-5.6,1.1-6.4c0.3-0.8,1.8-2,1.8-2
			v-1.3c-5.5,0.2-3.9-0.4-4.9-2.6c-0.7-1.5-0.2-1.8,0.1-2.9c0.7-3.1,3.2-7.8,4.2-9.9c0.3-1.1,1.4-3.7,1.4-3.7
			c4.1-8.4,5.7-7.8,10.6-8.3l0.2-0.3c4.9-0.2,4.1-0.6,4.8-5.3c-0.7,0.3-0.9-1.5-0.9-1.5c-0.4-2.7,0.7-2.2,1.3-2.2
			c0.1-4.4,0.6-5.8,3.8-7H12.8C7.4,3,3,7.4,3,12.8V111c0,5.4,4.4,9.8,9.8,9.8h29C38.5,119,40.5,115.6,40.6,109.1z"/>
		<path class="st2" d="M34.6,22.7l0,0.4c0.9,0.5,1.3,0.9,2.2,1.5c2.4,1.5,5.3,4.1,4.9,13.3c0.7,2,1,5.9,1.6,7.1
			c1.2,2.4,2.1,4,2.4,6.3c0,0,0.4,3.6,0.8,3.8c2.4,0.6,1.7,0.8,2.1,1.2c0.4,0.5,1.8,0.5,1.8,1.8c0.5,0.7,0.9,1.3,1.1,2V12.8
			c0-5.4-4.4-9.8-9.8-9.8h-9.4c1.5,0.5,2.4,1.2,2.9,2.2C36.5,5.3,38,8,35.7,12c1,0.7,0.2,1.6-0.5,2.8c-0.2,0.4-0.4,1-1.1,1
			c-0.9,1.8-1.9,3.5-2.7,3.6c-0.2,0.3-0.4,1.1-0.1,1.4C32.6,21.4,33.9,22.1,34.6,22.7"/>
		<path class="st2" d="M51.6,66.7c-1.3,3.2-4.4,5.5-8.1,5.5c-4.8,0-8.7-3.9-8.7-8.7c0-4.1,2.8-7.6,6.7-8.5c-1-2.5-3.1-6.6-3.8-7.9
			c-0.6-1.3-2-9.6-2.3-11.3c-0.1-0.4-3.8,2.1-3.8,2.3c-0.2,0.2-2.8,6.9-2.9,7.3c-0.1,0.2-0.1,1.1-0.1,1.1s1.3,0.2,2,2.4
			C31.3,51,33.5,59,33.5,59s-0.6,0.6-0.6,0.6c2.8,9.2,1.8,13.2,3,15.9c1.6,3.8,2,3.3,3.3,6.5c1,2.3,2,11.5,2.4,11.9
			c1.5,1.9,2.3,3.4,2.3,4.4c0,1.1-1.3,4.2-0.8,6.1c0.3,1.1,0.4,3.5,0.9,4c0,0,0.5,0.9,0.2,1.3c-0.1,0.1-0.2,0.4-0.1,0.5
			c0.8,2.9,3.5,7.8-0.8,10.4h0.1c4.7-0.7,8.2-4.7,8.2-9.7V66.7z"/>
	</g>
	<g>
		<g>
			<path class="st1" d="M83.4,121H69.5V3.3H91l14.3,97.1c-2.1-23.1-4.9-60.3-4.9-80V3.3h13.9V121H94.6L81.4,26.7
				c1.2,21.1,2,46.3,2,60.5V121z"/>
			<path class="st1" d="M138,69.9v36.3h2.6c4.9,0,6.4-2.8,6.4-8.4v-20c0-5.8-1.8-7.9-7.1-7.9H138z M138,18.1V57h2
				c5.6,0,7.1-2.1,7.1-8.6V26c0-5.4-1.6-7.9-6.4-7.9H138z M122.1,121V3.3h19.6c13,0,21.1,7.1,21.1,23.6v17.3c0,10.7-3.3,16.2-7.9,19
				c4.6,3,7.9,8.2,7.9,17.3v17.1c0,16.2-8.6,23.4-21.1,23.4H122.1z"/>
			<path class="st1" d="M183.3,85.5h8.4l-1.3-21.6c-0.5-8.6-1.8-35.8-2.8-50.5h-0.7l-2.3,50.5L183.3,85.5z M192.5,98.9h-9.9
				l-1.3,22.1h-16L176.9,3.3h22.4L210.5,121h-16.7L192.5,98.9z"/>
		</g>
		<g>
			<path class="st2" d="M286.2,87.3c0,16.5-15.2,38.3-35.6,38.3c-14.6,0-28.7-11.4-28.7-37.5c0-43.1,35.9-85.9,65.4-85.9
				c9.3,0,18.9,4.8,18.9,19.7c0,15.4-11.2,30.3-22.6,30.3c-5.1,0-7.7-2.9-8.2-4.8c7.4-3.5,15.4-13,15.4-26.6c0-4.5-1.1-9-6.9-9
				c-17.5,0-43.1,39.3-43.1,75.2c0,14.9,4.5,24.7,14.4,24.7c11.7,0,21.3-13.8,25.8-32.7C284.8,80.1,286.2,83.6,286.2,87.3z"/>
			<path class="st2" d="M559.1,8.9c-6.6-0.5-12.7,2.6-16.1,8.7c-1.5-5.2-6.1-8.2-11.4-8.5c-10.1-0.7-19.7,7.4-20.8,22.8
				c-1.2,17.2,8.8,33.5,15.9,33.5c1.6,0,2.1-0.7,2.5-1.2c-5.1-3.8-11.7-14.5-10.5-31c0.8-10.9,4.4-16.2,9.7-15.8
				c4.5,0.3,7.7,4.3,4.6,14.2c0.5,0.3,1.3,0.4,2.1,0.4c5.3,0.4,7.5-4.5,9.9-7.8c2.4-3.6,5.2-5.5,9.2-5.2c5.8,0.4,8.7,4.6,8.1,12.8
				c-1.7,23.6-24.6,35.4-51.3,44.6c-2.4,0.8-4.5,1.6-6.9,2.4c-1.6-10.9-4.3-21.8-4.3-34.8c0-10.1,1.6-15.4,2.7-19.7
				c-1.1-1.3-2.7-1.9-4.3-1.9c-3.7,0-6.9,1.9-9,5.8c-0.8,1.6-1.3,3.2-1.9,5c-19.4,48.1-35.4,74.2-51,74.2c-5.1,0-9.6-2.9-9.6-15.2
				c0-3.5,0.3-7.2,1.1-11.2c1.1,0.3,2.7,0.5,4.5,0.5c19.7,0,33.5-18.6,33.5-35.1c0-10.1-5.1-14.9-12.2-14.9
				c-14.9,0-34,21.5-40.1,46.8c-5.8,21.3-13.6,30.3-18.1,30.3c-1.9,0-3.5-1.3-3.5-5.3c0-6.9,4.5-18.3,9.6-29.8
				c6.4-14.9,14.1-31.6,14.1-35.1c0-3.5-2.7-6.4-7.2-6.4c-2.4,0-8.8,0.5-18.1,0.8c1.6-4.8,3.5-8.8,5.1-12.2
				c-1.6-1.6-4.3-2.4-6.1-2.4c-9.8,0-14.1,12.8-14.1,18.9c0,2.1,0.5,4,1.6,5.3c-8.5,22.1-14.6,37.7-19.1,47.8
				c-6.4,14.9-10.1,18.3-13,18.3c-2.1,0-3.5-1.6-3.5-6.4c0-14.9,12.2-44.7,22.3-60.6c-0.3-2.4-2.1-4.8-5.8-4.8
				c-1.9,0-3.7,0.8-5.8,2.7c-1.1-3.7-5.3-8-13-8c-22.1,0-47.8,36.7-47.8,68c0,14.1,5.8,21,14.6,21c7.2,0,13.6-4.8,20.5-15.9
				c0,8.8,4,15.9,12.8,15.9c8.8,0,17.3-8,25.3-25.5c5.6-12.2,11.4-27.6,19.9-49.4c1.6,0.5,3.5,0.5,5.6,0.5c1.9,0,4.8-0.3,8.8-0.3
				c-4.3,9.8-8,18.3-10.9,25.3c-6.9,16.2-10.9,25.8-10.9,34.6c0,9.6,5,14.9,12.8,14.9c10.1,0,17.8-9.3,22.9-19.4
				c1.9,12.2,8.8,19.4,19.1,19.4c20.2,0,39.6-26.3,55.3-67.5c0.8,10.6,3.2,20.2,4.3,30.6c-16.2,6.9-27.1,14.9-27.1,27.1
				c0,9.6,6.6,14.4,15.2,14.4c12.2,0,26.3-10.1,26.3-34c0-1.9,0-4-0.3-5.8c2.4-0.8,5-1.6,7.4-2.4c28-8.8,60.7-24.5,63.6-52.3
				C577.3,16.5,567.8,9.6,559.1,8.9z M450.3,40.3c2.7,0,4,1.6,4,6.1c0,12-8.5,29.2-23.4,29.2c-0.8,0-1.6,0-2.1-0.3
				C432.5,58.1,441.2,40.3,450.3,40.3z M337.8,62.9c-2.1,4.8-4,9.6-5.6,14.1c-10.9,26.8-15.9,31.9-20.5,31.9c-2.9,0-5.1-2.4-5.1-9.6
				c0-18.3,15.7-56.9,32.2-56.9c3.7,0,6.1,1.9,7.2,4C343.7,50.4,341,55.7,337.8,62.9z M490.9,91c0,15.2-4.8,25.3-12.8,25.3
				c-3.7,0-6.4-2.1-6.4-6.9c0-7.7,6.9-13.3,19.1-18.6C490.9,90.8,490.9,90.8,490.9,91z"/>
		</g>
	</g>
</g>
</svg>
